<?xml version="1.0" encoding="UTF-8"?>
<!DOCTYPE svg PUBLIC "-//W3C//DTD SVG 1.1//EN" "http://www.w3.org/Graphics/SVG/1.1/DTD/svg11.dtd">
<!-- Creator: CorelDRAW X8 -->
<svg xmlns="http://www.w3.org/2000/svg" xml:space="preserve" width="468px" height="470px" version="1.1" style="shape-rendering:geometricPrecision; text-rendering:geometricPrecision; image-rendering:optimizeQuality; fill-rule:evenodd; clip-rule:evenodd"
viewBox="0 0 468 470"
 xmlns:xlink="http://www.w3.org/1999/xlink">
 <defs>
  <style type="text/css">
   <![CDATA[
    .fil0 {fill:white}
   ]]>
  </style>
 </defs>
 <g id="Слой_x0020_1">
  <metadata id="CorelCorpID_0Corel-Layer"/>
  <path class="fil0" d="M243 3c24,11 48,23 74,33 43,16 84,23 129,25 7,0 13,3 17,8 4,5 6,11 5,18 -17,126 -53,363 -212,382 -50,6 -97,-7 -134,-41 -69,-62 -122,-254 -122,-345 0,-13 10,-23 23,-23 81,0 129,-17 199,-57 6,-3 14,-4 21,0zm-9 371l-1 0c-10,0 -17,-8 -17,-18 0,-9 7,-17 17,-17l1 0c9,0 17,8 17,17 0,10 -8,18 -17,18zm-12 -94l0 -165c0,-6 5,-11 12,-11 6,0 11,5 11,11l0 165c0,7 -5,12 -11,12 -7,0 -12,-5 -12,-12zm-159 -161c5,30 10,59 17,88 8,34 19,67 31,99 1,4 0,7 -4,8 -3,2 -6,0 -7,-3 -13,-33 -24,-66 -32,-101 -7,-31 -12,-63 -18,-95 0,-2 0,-4 1,-5 1,-1 3,-2 5,-2 29,-4 57,-10 85,-16 4,-1 7,1 8,4 0,4 -2,7 -5,8 -27,6 -53,11 -81,15zm170 -96c-73,42 -124,60 -210,60 -1,88 52,272 114,328 33,30 73,40 116,35 145,-17 178,-250 192,-362 -96,-5 -142,-28 -212,-61z"/>
 </g>
</svg>
