<?xml version="1.0" encoding="UTF-8"?>
<!DOCTYPE svg PUBLIC "-//W3C//DTD SVG 1.1//EN" "http://www.w3.org/Graphics/SVG/1.1/DTD/svg11.dtd">
<!-- Creator: CorelDRAW X8 -->
<svg xmlns="http://www.w3.org/2000/svg" xml:space="preserve" width="521px" height="519px" version="1.1" style="shape-rendering:geometricPrecision; text-rendering:geometricPrecision; image-rendering:optimizeQuality; fill-rule:evenodd; clip-rule:evenodd"
viewBox="0 0 521 519"
 xmlns:xlink="http://www.w3.org/1999/xlink">
 <defs>
  <style type="text/css">
   <![CDATA[
    .fil0 {fill:white}
   ]]>
  </style>
 </defs>
 <g id="Слой_x0020_1">
  <metadata id="CorelCorpID_0Corel-Layer"/>
  <path class="fil0" d="M188 291c4,5 5,11 3,18 -1,7 -4,15 -6,21 -3,10 -6,19 -9,28 -3,9 -6,19 -7,29 0,3 -1,11 0,14 10,3 32,-17 39,-22 13,-11 33,-29 50,-31 20,-1 41,17 56,29 5,4 27,24 37,24 0,0 0,-1 1,-1 5,-10 -4,-34 -8,-44 -5,-15 -14,-35 -14,-50 0,-1 0,-2 0,-2 1,-10 5,-17 12,-23 6,-4 12,-8 17,-12 7,-4 14,-9 21,-14 8,-5 17,-11 23,-18 2,-1 7,-7 7,-10 -1,0 -1,-1 -2,-2 -6,-8 -35,-6 -45,-5 -16,1 -40,4 -55,-2 0,0 0,0 -1,0 -10,-4 -15,-16 -18,-26 -4,-11 -7,-22 -10,-34 -3,-10 -6,-20 -10,-29 -1,-3 -5,-11 -8,-11 0,0 -1,0 -1,0 -3,2 -8,12 -9,15 -3,8 -5,16 -8,24 -2,6 -9,9 -16,7 -6,-2 -10,-9 -8,-16 7,-18 16,-54 40,-55 3,0 6,0 9,1 21,6 30,39 35,58 2,7 10,38 14,43 11,3 35,1 45,0 24,-1 63,-4 72,26 6,23 -23,44 -40,55 -7,5 -14,9 -21,14 -5,3 -10,6 -15,10 -2,2 -3,4 -3,6 0,6 2,12 4,17 2,8 6,16 9,24 8,23 19,56 -3,75 -1,1 -2,2 -3,2 -23,9 -48,-15 -64,-28 -8,-6 -28,-23 -38,-23 -9,1 -30,19 -37,25 -16,14 -41,35 -64,25 -26,-11 -13,-53 -7,-72 3,-10 6,-19 9,-28 2,-6 5,-13 6,-19 0,0 0,0 0,0 0,0 0,0 0,0 0,0 0,-1 0,-1 -1,0 -1,-1 -1,-1 -3,-6 -31,-21 -37,-25 -18,-12 -47,-32 -40,-58 10,-35 80,-22 107,-22 7,0 13,6 13,13 0,6 -6,12 -13,12 -6,0 -13,-1 -20,-1 -8,-1 -17,-1 -25,-2 -9,0 -19,0 -27,2 -3,1 -10,2 -11,5 0,0 0,0 0,0 0,1 0,1 0,2 0,9 23,23 30,28 8,5 17,10 26,16 7,5 15,11 19,19zm83 -265c-69,0 -134,22 -182,73 -40,43 -62,100 -64,159 0,125 103,237 230,237 7,0 13,6 13,13 0,6 -6,12 -13,12 -141,0 -255,-123 -255,-262 0,-1 0,-1 0,-1 2,-64 26,-128 71,-175 52,-56 124,-81 200,-81 1,0 1,0 1,0 60,6 117,28 163,68 40,35 67,81 79,133 12,50 8,101 -10,149 -20,52 -57,96 -103,128 -5,4 -13,2 -17,-3 -4,-6 -3,-14 3,-18 42,-29 75,-68 94,-116 16,-43 19,-90 9,-134 -11,-47 -36,-89 -72,-121 -41,-36 -93,-56 -147,-61z"/>
 </g>
</svg>
