<?xml version="1.0" encoding="UTF-8"?>
<!DOCTYPE svg PUBLIC "-//W3C//DTD SVG 1.1//EN" "http://www.w3.org/Graphics/SVG/1.1/DTD/svg11.dtd">
<!-- Creator: CorelDRAW X8 -->
<svg xmlns="http://www.w3.org/2000/svg" xml:space="preserve" width="466px" height="466px" version="1.1" style="shape-rendering:geometricPrecision; text-rendering:geometricPrecision; image-rendering:optimizeQuality; fill-rule:evenodd; clip-rule:evenodd"
viewBox="0 0 466 466"
 xmlns:xlink="http://www.w3.org/1999/xlink">
 <defs>
  <style type="text/css">
   <![CDATA[
    .fil0 {fill:white}
   ]]>
  </style>
 </defs>
 <g id="Слой_x0020_1">
  <metadata id="CorelCorpID_0Corel-Layer"/>
  <path class="fil0" d="M187 225c0,0 -1,-1 -1,-2l-119 -119c-2,0 -6,0 -8,-1 -10,0 -20,-1 -26,-10 -1,-1 -1,-2 -1,-3 -1,0 -1,-1 -1,-2l-2 -2c-1,-1 -2,-2 -3,-4 0,0 0,0 0,0 0,-1 -1,-1 -1,-2 -1,-1 -2,-3 -3,-4 0,-1 0,-1 0,-1 -1,-1 -1,-1 -2,-2l-6 -12c-1,-1 -2,-2 -3,-4 -1,-1 -1,-2 -1,-3 -5,-7 -12,-16 -11,-25 1,-7 4,-13 9,-17 2,-3 4,-5 7,-8 2,-1 3,-2 6,-3 2,0 3,-1 5,-1 2,-1 5,-1 7,0 2,0 4,1 6,1 3,0 5,1 7,3 0,1 1,1 2,2 1,0 2,1 3,1 1,0 2,1 3,2 0,0 0,0 0,1 1,0 1,0 1,0 1,0 3,1 4,2 0,1 1,1 2,2 1,0 2,1 3,1 1,0 2,1 3,2 0,0 1,1 1,1 1,1 1,1 2,1 1,1 2,1 3,2 0,0 1,1 1,1 0,0 1,0 1,0 2,1 4,2 5,3l2 2c3,1 3,2 6,4 3,1 5,2 7,4 5,5 7,11 8,17 1,4 0,11 1,15l119 119c1,0 1,1 2,1 1,-1 2,-3 3,-4 16,-15 31,-30 46,-45 6,-6 19,-21 22,-29 1,-8 2,-15 3,-23 1,-11 2,-21 2,-32 0,-1 0,-2 1,-4 10,-31 17,-40 50,-48 3,-1 7,-1 9,2 3,2 5,5 4,8l-1 16c0,1 0,1 0,1 0,5 -2,9 -2,13 -1,5 -2,11 -1,16 1,3 4,5 7,6 16,5 25,-8 25,-24 0,0 0,-1 0,-2 2,-7 5,-15 11,-20 3,-2 7,-2 10,-1 25,8 28,41 24,63 -4,18 -11,33 -28,42 -10,5 -22,6 -31,14 -37,31 -71,65 -105,100 0,0 0,1 0,1l18 18c6,6 12,12 18,19 0,-1 1,-1 2,-1 2,-2 3,-4 5,-6 5,-4 8,-6 14,-9 3,-1 6,-1 9,0 2,1 4,1 6,2 3,2 7,6 10,9 2,2 3,5 3,8 0,4 0,9 0,13 -1,3 -1,5 -3,7 0,1 0,2 0,3 2,2 4,4 6,6 4,4 8,8 12,12 11,11 23,23 35,35 12,12 23,23 35,35 4,4 8,8 12,12 2,2 5,6 6,8 4,8 4,19 0,26 -2,5 -9,12 -12,15 -3,3 -11,12 -15,14 -5,2 -19,3 -24,1 -5,-1 -14,-10 -18,-14 -8,-8 -17,-16 -25,-24 -8,-8 -15,-16 -23,-23 -5,-5 -10,-10 -14,-14 -2,-3 -3,-5 -6,-7 -2,-1 -3,-3 -4,-4 -1,-1 -1,-1 -1,-1 0,-1 -1,-1 -1,-1 0,-1 -1,-1 -1,-1 -1,-1 -2,-1 -2,-2l-8 -8c0,-1 -1,-2 -2,-2 -1,-1 -2,-2 -3,-3l-2 -3c0,0 0,0 0,0 -1,0 -2,0 -3,0l-3 0c0,1 -1,1 -1,1 -2,1 -3,1 -5,1 -5,0 -9,1 -14,0 -2,0 -4,-1 -6,-3l-7 -7c0,0 -1,-1 -1,-2 -4,-5 -5,-11 -3,-17 2,-3 3,-5 5,-7 2,-2 4,-4 5,-6 2,-2 3,-3 4,-5 1,0 1,-1 1,-2 -1,-1 -3,-3 -4,-4 -4,-5 -8,-9 -12,-13 -6,-6 -13,-12 -19,-18 0,0 -1,0 -2,0 -27,27 -62,57 -76,94 -1,41 4,52 -28,83 -1,2 -3,3 -5,3 -5,1 -10,3 -15,4 -4,4 -11,3 -15,-1 -3,-3 -4,-8 -2,-12 0,-9 3,-20 6,-28 0,-5 -1,-12 -3,-16 -2,-3 -7,-5 -11,-5 -27,4 -13,42 -31,50 -2,0 -5,1 -7,1 -12,-2 -18,-16 -22,-26 -2,-4 -4,-8 -5,-13 -7,-35 23,-74 58,-83 35,-34 71,-67 107,-101zm15 16c-37,34 -74,68 -110,103 -2,1 -3,2 -5,2 -11,2 -21,9 -29,17 -11,12 -21,33 -12,50 0,0 0,1 1,1 0,1 0,1 0,2 1,-4 2,-8 4,-12 6,-17 18,-27 36,-29 1,0 1,0 2,0 11,2 20,6 26,15 6,9 7,20 7,31 0,2 0,3 -1,5 -1,2 -2,6 -3,9 0,0 1,0 1,0 7,-7 15,-15 18,-24 1,-5 2,-11 2,-16 0,-10 0,-19 0,-28 0,-2 0,-3 1,-4 14,-42 51,-71 81,-103l-2 -3 -15 -16c-1,0 -2,0 -2,0zm142 77c-1,0 -2,0 -3,1l-23 22c0,1 0,2 0,3l1 2c1,1 2,2 3,3 1,0 1,0 2,1l7 8c3,2 4,3 6,6 0,0 0,1 1,1 4,3 7,6 10,10 3,4 8,9 12,13 8,7 15,15 23,23 8,7 15,15 23,22 3,3 6,5 9,8 0,1 2,2 3,3 2,0 5,-1 8,-1 3,-3 6,-6 9,-9 2,-2 6,-6 8,-9 1,-2 1,-5 0,-7 -1,-1 -3,-3 -4,-5 -4,-4 -8,-8 -12,-11 -11,-12 -22,-23 -33,-34 -11,-11 -23,-23 -35,-35 -5,-5 -10,-10 -15,-15 0,0 0,0 0,0zm-49 -30c-6,-6 -11,-12 -17,-17 0,0 -1,0 -1,-1l-20 -20c-1,-1 -2,-2 -2,-4 -1,-1 -1,-3 -2,-5 0,0 -1,0 -1,0 -8,-2 -22,-17 -28,-23 -3,-4 -4,-7 -5,-11 -1,0 -2,-1 -3,-1 -2,0 -4,-1 -6,-3l-123 -123c-1,0 -1,-1 -2,-2 -3,-7 -3,-16 -3,-23 0,-1 -1,-3 -1,-4 -2,-1 -3,-1 -5,-2 -1,-1 -1,-1 -1,-1 -1,0 -1,-1 -1,-1 -2,0 -3,-1 -5,-3l-2 -2c-3,0 -4,-1 -7,-4 -3,-1 -4,-2 -6,-4 -3,-1 -5,-2 -7,-4 -1,-1 -2,-1 -3,-1 -1,-1 -2,-2 -3,-3 -3,-1 -5,-2 -7,-4 -1,0 -3,-1 -4,-1 -1,0 -1,0 -2,1 -1,1 -2,2 -3,3 -1,1 -1,2 -2,2 -1,1 -1,2 -2,2 -1,0 -1,1 -1,1 1,4 7,11 9,15 0,0 1,1 1,2 0,0 0,0 0,0 0,0 0,0 0,1 1,0 2,1 2,2l6 12c3,2 3,3 4,5 2,2 3,3 4,6l2 2c2,2 3,4 3,6 0,0 0,0 0,0 2,1 8,1 9,1 7,0 14,1 20,5 0,0 1,1 1,1l121 121c1,1 1,1 2,2 2,3 2,6 3,9 2,1 3,1 5,1 2,1 4,2 5,3l19 19c1,2 2,3 3,4l2 6c1,1 2,1 3,2 0,0 1,0 1,0 0,0 0,0 1,0 2,1 4,2 5,3 7,7 14,13 20,20 5,4 9,9 14,13 1,1 2,3 3,4 1,0 2,0 3,-1 1,-1 1,-2 3,-3l1 -3zm-37 -68c0,0 1,1 1,1 35,-35 69,-70 107,-101 6,-5 12,-9 19,-12 5,-1 11,-3 16,-5 11,-6 14,-16 16,-27 2,-8 2,-24 -3,-33 -1,17 -8,34 -25,40 -9,4 -19,4 -29,1 0,0 0,0 -1,0 -8,-4 -15,-10 -18,-20 -4,-13 0,-25 2,-37l0 -1c-12,5 -15,12 -21,30 0,11 -1,22 -2,33 -1,7 -2,15 -3,23 0,0 0,1 0,2 -4,13 -19,29 -28,38 -14,16 -30,31 -46,46 -1,2 -2,3 -3,4 0,1 0,1 1,2 3,4 12,14 17,16zm36 96c0,0 -1,1 -1,2 0,1 -1,2 -1,3 -1,3 -2,5 -4,7 -1,0 -1,0 -2,1 0,0 0,0 -1,1 0,0 0,0 0,1 -1,1 -4,4 -6,5l2 3c2,0 3,-1 5,-1 1,0 1,0 2,-1 1,0 3,-1 5,-1l3 0c1,0 1,0 2,0 0,-1 0,-1 0,-2 1,-2 2,-4 3,-6l26 -26c1,-1 2,-1 4,-2 1,-1 3,-1 4,-2 0,0 0,-1 0,-1 0,-1 0,-2 0,-4 0,-1 0,-1 0,-2 1,-2 2,-4 3,-5 0,-2 0,-3 0,-5 -1,0 -1,-1 -2,-2 -1,1 -2,2 -4,3 -2,3 -5,7 -8,9 -2,1 -6,2 -9,3l-2 7c-1,2 -2,4 -4,6 -1,0 -1,0 -2,1 0,0 0,0 -1,1 -1,1 -2,2 -3,3 -3,2 -6,3 -9,4z"/>
 </g>
</svg>
