<?xml version="1.0" encoding="UTF-8"?>
<!DOCTYPE svg PUBLIC "-//W3C//DTD SVG 1.1//EN" "http://www.w3.org/Graphics/SVG/1.1/DTD/svg11.dtd">
<!-- Creator: CorelDRAW X8 -->
<svg xmlns="http://www.w3.org/2000/svg" xml:space="preserve" width="411px" height="118px" version="1.1" style="shape-rendering:geometricPrecision; text-rendering:geometricPrecision; image-rendering:optimizeQuality; fill-rule:evenodd; clip-rule:evenodd"
viewBox="0 0 411 118"
 xmlns:xlink="http://www.w3.org/1999/xlink">
 <defs>
  <style type="text/css">
   <![CDATA[
    .fil4 {fill:#4B4D9A;fill-rule:nonzero}
    .fil1 {fill:url(#id14);fill-rule:nonzero}
    .fil2 {fill:url(#id15);fill-rule:nonzero}
    .fil0 {fill:url(#id16);fill-rule:nonzero}
    .fil3 {fill:url(#id17);fill-rule:nonzero}
   ]]>
  </style>
    <mask id="id0">
  <linearGradient id="id1" gradientUnits="userSpaceOnUse" x1="-10.8257" y1="59.1083" x2="337.975" y2="59.1083">
   <stop offset="0" style="stop-opacity:0; stop-color:white"/>
   <stop offset="0.741176" style="stop-opacity:-127.502; stop-color:white"/>
   <stop offset="1" style="stop-opacity:1; stop-color:white"/>
  </linearGradient>
     <rect style="fill:url(#id1)" x="-11" width="350" height="119"/>
    </mask>
    <mask id="id2">
  <linearGradient id="id3" gradientUnits="userSpaceOnUse" x1="41.3175" y1="59.1083" x2="379.112" y2="59.1083">
   <stop offset="0" style="stop-opacity:0; stop-color:white"/>
   <stop offset="0.741176" style="stop-opacity:-127.502; stop-color:white"/>
   <stop offset="1" style="stop-opacity:1; stop-color:white"/>
  </linearGradient>
     <rect style="fill:url(#id3)" x="41" width="339" height="119"/>
    </mask>
    <mask id="id4">
  <linearGradient id="id5" gradientUnits="userSpaceOnUse" x1="355.6" y1="76.4608" x2="400.179" y2="76.4608">
   <stop offset="0" style="stop-opacity:0; stop-color:white"/>
   <stop offset="0.741176" style="stop-opacity:-127.502; stop-color:white"/>
   <stop offset="1" style="stop-opacity:1; stop-color:white"/>
  </linearGradient>
     <rect style="fill:url(#id5)" x="355" y="34" width="45.4787" height="84.2506"/>
    </mask>
    <mask id="id6">
  <linearGradient id="id7" gradientUnits="userSpaceOnUse" x1="109.531" y1="76.4608" x2="396.799" y2="76.4608">
   <stop offset="0" style="stop-opacity:0; stop-color:white"/>
   <stop offset="0.741176" style="stop-opacity:-127.502; stop-color:white"/>
   <stop offset="1" style="stop-opacity:1; stop-color:white"/>
  </linearGradient>
     <rect style="fill:url(#id7)" x="109" y="34" width="288.169" height="84.2506"/>
    </mask>
    <mask id="id8">
  <linearGradient id="id9" gradientUnits="userSpaceOnUse" x1="14.538" y1="59.1083" x2="338.025" y2="59.1083">
   <stop offset="0" style="stop-opacity:0; stop-color:white"/>
   <stop offset="0.741176" style="stop-opacity:-127.502; stop-color:white"/>
   <stop offset="1" style="stop-opacity:1; stop-color:white"/>
  </linearGradient>
     <rect style="fill:url(#id9)" x="14" width="324" height="119"/>
    </mask>
    <mask id="id10">
  <linearGradient id="id11" gradientUnits="userSpaceOnUse" x1="53.0288" y1="60.2614" x2="378.825" y2="60.2614">
   <stop offset="0" style="stop-opacity:0; stop-color:white"/>
   <stop offset="0.741176" style="stop-opacity:-127.502; stop-color:white"/>
   <stop offset="1" style="stop-opacity:1; stop-color:white"/>
  </linearGradient>
     <rect style="fill:url(#id11)" x="53" y="2" width="327" height="117"/>
    </mask>
    <mask id="id12">
  <linearGradient id="id13" gradientUnits="userSpaceOnUse" x1="164.262" y1="80.8815" x2="397.85" y2="80.8815">
   <stop offset="0" style="stop-opacity:0; stop-color:white"/>
   <stop offset="0.741176" style="stop-opacity:-127.502; stop-color:white"/>
   <stop offset="1" style="stop-opacity:1; stop-color:white"/>
  </linearGradient>
     <rect style="fill:url(#id13)" x="164" y="43" width="234.489" height="75.4094"/>
    </mask>
  <linearGradient id="id14" gradientUnits="userSpaceOnUse" x1="36.3037" y1="168.834" x2="342.948" y2="-9.43721">
   <stop offset="0" style="stop-opacity:1; stop-color:#D9E0E8"/>
   <stop offset="0.14902" style="stop-opacity:1; stop-color:#80B0DF"/>
   <stop offset="0.329412" style="stop-opacity:1; stop-color:#4256A1"/>
   <stop offset="0.509804" style="stop-opacity:1; stop-color:#90C4EB"/>
   <stop offset="0.658824" style="stop-opacity:1; stop-color:#4B80C1"/>
   <stop offset="0.811765" style="stop-opacity:1; stop-color:#A8DCF8"/>
   <stop offset="1" style="stop-opacity:1; stop-color:#404594"/>
  </linearGradient>
  <linearGradient id="id15" gradientUnits="userSpaceOnUse" xlink:href="#id14" x1="65.2478" y1="186.387" x2="392.332" y2="39.0983">
  </linearGradient>
  <linearGradient id="id16" gradientUnits="userSpaceOnUse" xlink:href="#id14" x1="-66.3707" y1="103.815" x2="352.373" y2="-34.352">
  </linearGradient>
  <linearGradient id="id17" gradientUnits="userSpaceOnUse" xlink:href="#id14" x1="54.7424" y1="204.562" x2="366.531" y2="31.5121">
  </linearGradient>
 </defs>
 <g id="Слой_x0020_1">
  <metadata id="CorelCorpID_0Corel-Layer"/>
  <g id="_841731304">
   <path class="fil0" style="mask:url(#id0)" d="M3 0c-11,17 -20,49 -9,118 2,-65 22,-99 48,-118l-39 0zm268 0c-17,9 -48,17 -107,15 -75,4 -115,6 -152,103l9 0c51,-60 65,-66 103,-72 44,-6 172,3 206,-37 3,-3 6,-6 8,-9l-67 0z"/>
   <path class="fil1" style="mask:url(#id2)" d="M70 118c28,-18 70,-34 129,-34 210,-4 185,-64 171,-84l-8 0c-8,17 -41,61 -163,56 -89,-3 -135,31 -158,62l29 0z"/>
   <path class="fil2" style="mask:url(#id4)" d="M393 118c17,-41 -1,-83 -1,-83 0,0 -4,17 -30,33 6,20 3,36 -6,50l37 0z"/>
   <path class="fil3" style="mask:url(#id6)" d="M295 118c136,-19 97,-83 97,-83 0,0 -12,57 -158,59 -54,-3 -94,8 -124,24l185 0z"/>
   <path class="fil4" style="mask:url(#id8)" d="M330 9c3,-3 6,-6 8,-9l-13 0c-37,38 -163,29 -205,36 -53,7 -89,54 -105,82l6 0c52,-62 65,-66 103,-72 44,-6 172,3 206,-37z"/>
   <path class="fil4" style="mask:url(#id10)" d="M371 2c7,26 -10,66 -179,68 -72,5 -114,27 -139,48l17 0c28,-18 70,-34 129,-34 204,-4 186,-60 172,-82l0 0 0 0z"/>
   <path class="fil4" style="mask:url(#id12)" d="M396 44c0,25 -21,67 -168,68 -24,0 -45,2 -64,6l128 0c108,-14 110,-56 104,-74l0 0 0 0z"/>
  </g>
 </g>
</svg>
