<?xml version="1.0" encoding="UTF-8"?>
<!DOCTYPE svg PUBLIC "-//W3C//DTD SVG 1.1//EN" "http://www.w3.org/Graphics/SVG/1.1/DTD/svg11.dtd">
<!-- Creator: CorelDRAW X8 -->
<svg xmlns="http://www.w3.org/2000/svg" xml:space="preserve" width="523px" height="591px" version="1.1" style="shape-rendering:geometricPrecision; text-rendering:geometricPrecision; image-rendering:optimizeQuality; fill-rule:evenodd; clip-rule:evenodd"
viewBox="0 0 523 591"
 xmlns:xlink="http://www.w3.org/1999/xlink">
 <defs>
  <style type="text/css">
   <![CDATA[
    .fil4 {fill:#4B4D9A;fill-rule:nonzero;fill-opacity:0.501961}
    .fil1 {fill:url(#id0);fill-rule:nonzero}
    .fil2 {fill:url(#id1);fill-rule:nonzero}
    .fil3 {fill:url(#id2);fill-rule:nonzero}
    .fil0 {fill:url(#id3);fill-rule:nonzero}
   ]]>
  </style>
  <linearGradient id="id0" gradientUnits="userSpaceOnUse" x1="200.842" y1="533.543" x2="355.934" y2="46.865">
   <stop offset="0" style="stop-opacity:1; stop-color:#D9E0E8"/>
   <stop offset="0.14902" style="stop-opacity:1; stop-color:#80B0DF"/>
   <stop offset="0.329412" style="stop-opacity:1; stop-color:#4256A1"/>
   <stop offset="0.509804" style="stop-opacity:1; stop-color:#90C4EB"/>
   <stop offset="0.658824" style="stop-opacity:1; stop-color:#4B80C1"/>
   <stop offset="0.811765" style="stop-opacity:1; stop-color:#A8DCF8"/>
   <stop offset="1" style="stop-opacity:1; stop-color:#404594"/>
  </linearGradient>
  <linearGradient id="id1" gradientUnits="userSpaceOnUse" xlink:href="#id0" x1="275.878" y1="537.598" x2="467.349" y2="81.337">
  </linearGradient>
  <linearGradient id="id2" gradientUnits="userSpaceOnUse" xlink:href="#id0" x1="259.653" y1="572.071" x2="423.115" y2="89.4482">
  </linearGradient>
  <linearGradient id="id3" gradientUnits="userSpaceOnUse" xlink:href="#id0" x1="36.7051" y1="513.222" x2="304.569" y2="-2.46583">
  </linearGradient>
 </defs>
 <g id="Слой_x0020_1">
  <metadata id="CorelCorpID_0Corel-Layer"/>
  <g id="_443144560">
   <path class="fil0" d="M234 -2c-40,4 -239,169 -233,270 2,26 -8,75 132,221 -163,-215 -63,-276 -25,-325 25,-24 98,-109 132,-103 10,0 65,61 -65,152 -71,65 -105,97 -10,296 -28,-162 -24,-180 8,-221 35,-40 165,-121 152,-205 -6,-54 -36,-91 -91,-85l0 0z"/>
   <path class="fil1" d="M216 548c0,0 -59,-158 71,-260 233,-190 53,-253 53,-253 0,0 64,111 -86,213 -162,113 -38,300 -38,300l0 0z"/>
   <path class="fil2" d="M285 546c0,0 95,-43 192,-150 134,-175 -64,-321 -64,-321 0,0 16,29 10,71 180,158 -138,400 -138,400l0 0z"/>
   <path class="fil3" d="M262 588c0,0 -40,-152 98,-263 194,-165 53,-250 53,-250 0,0 54,94 -82,203 -162,108 -69,310 -69,310l0 0z"/>
   <path class="fil4" d="M325 83c-4,-36 -18,-65 -44,-79 16,17 24,39 28,67 12,83 -120,164 -152,205 -55,67 -2,213 8,233 -30,-166 -24,-180 8,-221 35,-40 165,-121 152,-205z"/>
   <path class="fil4" d="M356 43c36,32 65,103 -91,231 -136,132 -49,274 -49,274 0,0 -59,-158 71,-260 188,-154 107,-223 69,-245l0 0z"/>
   <path class="fil4" d="M427 85c28,37 57,114 -81,223 -138,110 -84,278 -84,278 0,0 -38,-152 98,-263 156,-130 97,-211 67,-238l0 0z"/>
  </g>
 </g>
</svg>
