<?xml version="1.0" encoding="UTF-8"?>
<!DOCTYPE svg PUBLIC "-//W3C//DTD SVG 1.1//EN" "http://www.w3.org/Graphics/SVG/1.1/DTD/svg11.dtd">
<!-- Creator: CorelDRAW X8 -->
<svg xmlns="http://www.w3.org/2000/svg" xml:space="preserve" width="1581px" height="166px" version="1.1" style="shape-rendering:geometricPrecision; text-rendering:geometricPrecision; image-rendering:optimizeQuality; fill-rule:evenodd; clip-rule:evenodd"
viewBox="0 0 1581 166"
 xmlns:xlink="http://www.w3.org/1999/xlink">
 <defs>
  <style type="text/css">
   <![CDATA[
    .fil0 {fill:#3A4E89;fill-rule:nonzero}
   ]]>
  </style>
 </defs>
 <g id="Слой_x0020_1">
  <metadata id="CorelCorpID_0Corel-Layer"/>
  <g id="_5594592">
   <path class="fil0" d="M72 0l12 9 0 63 0 15 -12 13 -16 0 28 66 -28 0 -31 -66 0 66 -25 0 0 -66 0 -28 0 -72 72 0zm-16 72l0 0 0 -47 -31 0 0 47 31 0z"/>
   <polygon class="fil0" points="122,25 122,72 153,72 153,100 122,100 122,141 150,141 153,141 169,141 169,166 159,166 97,166 97,0 159,0 169,0 169,25 153,25 150,25 "/>
   <polygon class="fil0" points="237,41 237,25 206,25 206,41 266,109 266,125 266,156 253,166 191,166 181,156 181,125 206,125 206,141 237,141 237,125 181,56 181,41 181,9 191,0 253,0 266,9 266,41 "/>
   <path class="fil0" d="M350 0l12 9 0 63 0 15 -12 13 -47 0 0 66 -25 0 0 -66 0 -28 0 -72 72 0 0 0zm-47 72l0 0 31 0 0 -47 -31 0 0 47z"/>
   <polygon class="fil0" points="375,166 375,0 400,0 400,166 "/>
   <path class="fil0" d="M487 0l10 9 0 63 0 15 -10 13 -15 0 25 66 -28 0 -28 -66 0 66 -25 0 0 -66 0 -28 0 -72 71 0 0 0zm-15 72l0 0 0 -47 -31 0 0 47 31 0z"/>
   <path class="fil0" d="M584 0l10 9 0 157 -25 0 0 -41 -32 0 0 41 -28 0 0 -157 13 -9 62 0zm-15 100l0 0 0 -75 -32 0 0 75 32 0z"/>
   <polygon class="fil0" points="681,25 656,25 656,166 628,166 628,25 603,25 603,0 628,0 656,0 681,0 "/>
   <path class="fil0" d="M762 0l13 9 0 147 -13 10 -62 0 -10 -10 0 -147 10 -9 62 0zm-15 141l0 0 0 -116 -32 0 0 116 32 0z"/>
   <path class="fil0" d="M859 0l13 9 0 63 0 15 -13 13 -15 0 28 66 -28 0 -32 -66 0 66 -25 0 0 -66 0 -28 0 -72 72 0zm-15 72l0 0 0 -47 -32 0 0 47 32 0z"/>
   <polygon class="fil0" points="969,25 969,72 1000,72 1000,100 969,100 969,166 944,166 944,0 1006,0 1015,0 1015,25 990,25 997,25 "/>
   <path class="fil0" d="M1100 0l12 9 0 157 -28 0 0 -41 -31 0 0 41 -25 0 0 -157 9 -9 63 0zm-16 100l0 0 0 -75 -31 0 0 75 31 0z"/>
   <polygon class="fil0" points="1184,125 1209,125 1209,156 1200,166 1137,166 1128,156 1128,9 1137,0 1200,0 1209,9 1209,41 1184,41 1184,25 1153,25 1153,141 1184,141 "/>
   <polygon class="fil0" points="1297,25 1272,25 1272,166 1247,166 1247,25 1219,25 1219,0 1247,0 1272,0 1297,0 "/>
   <path class="fil0" d="M1381 0l9 9 0 147 -9 10 -62 0 -13 -10 0 -147 13 -9 62 0zm-16 141l0 0 0 -116 -31 0 0 116 31 0z"/>
   <path class="fil0" d="M1478 0l9 9 0 63 0 15 -9 13 -16 0 25 66 -28 0 -28 -66 0 66 -28 0 0 -66 0 -28 0 -72 75 0 0 0zm-16 72l0 0 0 -47 -31 0 0 47 31 0z"/>
   <polygon class="fil0" points="1581,0 1550,91 1550,94 1550,103 1550,166 1525,166 1525,159 1525,91 1493,0 1518,0 1537,53 1556,0 "/>
  </g>
 </g>
</svg>
