<?xml version="1.0" encoding="UTF-8"?>
<!DOCTYPE svg PUBLIC "-//W3C//DTD SVG 1.1//EN" "http://www.w3.org/Graphics/SVG/1.1/DTD/svg11.dtd">
<!-- Creator: CorelDRAW X8 -->
<svg xmlns="http://www.w3.org/2000/svg" xml:space="preserve" width="523px" height="591px" version="1.1" style="shape-rendering:geometricPrecision; text-rendering:geometricPrecision; image-rendering:optimizeQuality; fill-rule:evenodd; clip-rule:evenodd"
viewBox="0 0 523 591"
 xmlns:xlink="http://www.w3.org/1999/xlink">
 <defs>
  <style type="text/css">
   <![CDATA[
    .fil0 {fill:white;fill-rule:nonzero}
    .fil1 {fill:white;fill-rule:nonzero;fill-opacity:0.501961}
   ]]>
  </style>
 </defs>
 <g id="Слой_x0020_1">
  <metadata id="CorelCorpID_0Corel-Layer"/>
  <g id="_841731304">
   <path class="fil0" d="M233 0c-40,3 -238,168 -233,269 2,26 -8,75 132,221 -162,-215 -63,-276 -24,-324 24,-24 97,-110 132,-104 10,0 65,61 -65,152 -71,65 -106,98 -10,296 -29,-162 -24,-180 8,-220 34,-41 164,-122 152,-205 -6,-55 -37,-91 -92,-85l0 0z"/>
   <path class="fil0" d="M215 549c0,0 -58,-158 72,-259 233,-191 52,-254 52,-254 0,0 65,111 -85,213 -162,113 -39,300 -39,300l0 0 0 0z"/>
   <path class="fil0" d="M284 547c0,0 95,-43 193,-150 134,-174 -65,-320 -65,-320 0,0 16,28 10,70 181,159 -138,400 -138,400l0 0z"/>
   <path class="fil0" d="M262 589c0,0 -40,-151 97,-263 195,-164 53,-249 53,-249 0,0 55,93 -81,202 -163,108 -69,310 -69,310l0 0 0 0z"/>
   <path class="fil1" d="M325 85c-4,-37 -18,-65 -45,-80 16,17 25,39 29,67 12,84 -120,165 -152,205 -55,67 -3,213 8,233 -31,-166 -24,-180 8,-220 34,-41 164,-122 152,-205z"/>
   <path class="fil1" d="M355 44c37,33 65,103 -91,231 -136,132 -49,274 -49,274 0,0 -58,-158 72,-259 188,-155 107,-224 68,-246l0 0 0 0z"/>
   <path class="fil1" d="M426 86c29,37 57,114 -81,224 -138,109 -83,277 -83,277 0,0 -38,-151 97,-263 157,-130 98,-211 67,-238l0 0 0 0z"/>
  </g>
 </g>
</svg>
